<?xml version="1.0" encoding="UTF-8"?>
<svg xmlns="http://www.w3.org/2000/svg" width="16" height="14" viewBox="0 0 16 14">
  <path style="fill: #000000" d="m1,14v-1h2v-2h1v-1h1v-2h1v-5h7v-2h2v6h-1v1h2v3h-1v1h-1v1h-1v1" />
  <path style="fill: #808080" d="m7,6h3v-2h1v-2h1v-1h2v6h-1v1h-1v-1h-5 m6,1h2v3h-2v-1h-1v1h-1v-1h-1v1h-1v-1h-1v1h-1v-1h-1v1h-1v-2h8" />
  <path style="fill: #c0c0c0" d="m6,1h7v1h-1v6h-6v-1h5v-5h-5 m-2,7h8v1h-8 m8,0h1v-1h1v-1h1v1h-1v1 m-10,1h1v1h1v-1h1v1h1v-1h1v1h1v-1h1v1h1v-1h1v2h-1v-1h-8" />
  <path style="fill: #ffffff" d="m5,2h7v1h-6v5h-1 m-3,4h10v1h-10" />
  <path style="fill: #008080" d="m8,4h2v2h-3v-1" />
  <path style="fill: #00ffff" d="m7,4h1v1h-1" />
</svg>